<svg width="39" height="39" viewBox="0 0 39 39" fill="none" xmlns="http://www.w3.org/2000/svg">
<path fill="#D9D9D9" d="M19.5 38C29.7173 38 38 29.7173 38 19.5C38 9.28273 29.7173 1 19.5 1C9.28273 1 1 9.28273 1 19.5C1 29.7173 9.28273 38 19.5 38Z" fill="#D9D9D9"/>
<path class="star" d="M19.4998 25.6042L14.0032 28.4939C13.3648 28.8296 12.6185 28.2874 12.7404 27.5764L13.7902 21.4558L9.34339 17.1212C8.8268 16.6177 9.11186 15.7404 9.82574 15.6367L15.9711 14.7437L18.7194 9.1751C19.0387 8.52822 19.961 8.52822 20.2803 9.1751L23.0285 14.7437L29.1739 15.6367C29.8878 15.7404 30.1728 16.6177 29.6562 17.1212L25.2094 21.4558L26.2592 27.5764C26.3811 28.2874 25.6349 28.8295 24.9964 28.4939L19.4998 25.6042Z" fill="#F8C660"/>
<path class="circle" d="M33.2886 5.71144C29.6056 2.0283 24.7086 0 19.5 0C14.2914 0 9.39443 2.0283 5.71144 5.71144C2.02846 9.39458 0 14.2914 0 19.5C0 24.7086 2.0283 29.6056 5.71144 33.2886C9.39458 36.9715 14.2914 39 19.5 39C24.7086 39 29.6056 36.9717 33.2886 33.2886C36.9715 29.6054 39 24.7086 39 19.5C39 14.2914 36.9717 9.39443 33.2886 5.71144ZM19.5 37.4082C9.62546 37.4082 1.59184 29.3745 1.59184 19.5C1.59184 9.62546 9.62546 1.59184 19.5 1.59184C29.3745 1.59184 37.4082 9.62546 37.4082 19.5C37.4082 29.3745 29.3745 37.4082 19.5 37.4082Z" fill="#0D817A"/>
<path class="circle" d="M19.5 4C10.9532 4 4 10.9532 4 19.5C4 28.0468 10.9532 35 19.5 35C28.0467 35 35 28.0468 35 19.5C35 10.9532 28.0467 4 19.5 4ZM19.5 33.4878C11.7871 33.4878 5.5122 27.2129 5.5122 19.5C5.5122 11.7871 11.7871 5.5122 19.5 5.5122C27.213 5.5122 33.4878 11.7871 33.4878 19.5C33.4878 27.2129 27.213 33.4878 19.5 33.4878Z" fill="#0D817A"/>
<path class="insideStar" d="M30.556 16.0082C30.3682 15.4304 29.8781 15.0171 29.2769 14.9298L23.503 14.0908L20.921 8.85886C20.652 8.31403 20.1076 7.97552 19.5 7.97559C18.8924 7.97559 18.3479 8.3141 18.0791 8.85886L15.4969 14.0908L9.72315 14.9298C9.12186 15.0171 8.63172 15.4304 8.44394 16.0082C8.25623 16.5861 8.4099 17.2085 8.84494 17.6326L13.0229 21.7052L12.0366 27.4556C11.9338 28.0544 12.1754 28.6483 12.667 29.0055C13.1585 29.3626 13.798 29.4088 14.3358 29.126L19.4999 26.4111L24.6641 29.1261C24.898 29.2491 25.1511 29.3098 25.403 29.3098C25.7302 29.3098 26.0552 29.2073 26.333 29.0055C26.8245 28.6484 27.0661 28.0545 26.9634 27.4557L25.9771 21.7052L30.155 17.6327C30.5901 17.2085 30.7438 16.5861 30.556 16.0082ZM29.1579 16.6097L24.711 20.9444C24.5427 21.1084 24.4659 21.3449 24.5056 21.5766L25.5553 27.6971C25.5662 27.7606 25.5453 27.8119 25.4932 27.8498C25.4412 27.8876 25.3861 27.8916 25.3289 27.8617L19.8323 24.9719C19.7284 24.9172 19.6141 24.8898 19.5 24.8898C19.3858 24.8898 19.2716 24.9172 19.1676 24.9719L13.671 27.8617C13.614 27.8916 13.5589 27.8876 13.5066 27.8498C13.4545 27.8119 13.4337 27.7606 13.4446 27.6971L14.4944 21.5766C14.5341 21.3448 14.4573 21.1084 14.2889 20.9444L9.8421 16.6097C9.79595 16.5648 9.78269 16.5109 9.80258 16.4497C9.82241 16.3885 9.86486 16.3528 9.92857 16.3435L16.0739 15.4505C16.3066 15.4167 16.5078 15.2706 16.6117 15.0597L19.3601 9.49104C19.3886 9.43335 19.4357 9.40409 19.5 9.40409C19.5644 9.40409 19.6115 9.43335 19.64 9.49111L22.3882 15.0597C22.4923 15.2705 22.6934 15.4166 22.926 15.4505L29.0715 16.3435C29.1352 16.3528 29.1775 16.3884 29.1974 16.4497C29.2173 16.5109 29.2039 16.5648 29.1579 16.6097Z" fill="#231F20"/>
</svg>
